<svg width="44" height="44" viewBox="0 0 44 44" fill="none" xmlns="http://www.w3.org/2000/svg">
<circle cx="22" cy="22" r="20" fill="#060606"/>
<path d="M15.8333 27H29.1667C29.625 27 30 26.625 30 26.1667C30 25.7083 29.625 25.3333 29.1667 25.3333H15.8333C15.375 25.3333 15 25.7083 15 26.1667C15 26.625 15.375 27 15.8333 27ZM15.8333 22.8333H29.1667C29.625 22.8333 30 22.4583 30 22C30 21.5417 29.625 21.1667 29.1667 21.1667H15.8333C15.375 21.1667 15 21.5417 15 22C15 22.4583 15.375 22.8333 15.8333 22.8333ZM15 17.8333C15 18.2917 15.375 18.6667 15.8333 18.6667H29.1667C29.625 18.6667 30 18.2917 30 17.8333C30 17.375 29.625 17 29.1667 17H15.8333C15.375 17 15 17.375 15 17.8333Z" fill="#FDFEFF"/>
</svg>
