<svg width="153" height="115" viewBox="0 0 153 115" fill="none" xmlns="http://www.w3.org/2000/svg">
<rect x="0.000732422" width="76.3309" height="114.261" fill="#FDFEFF"/>
<path d="M60.5739 37.0173C67.9249 33.5581 76.2588 32.8073 84.1082 34.8972C91.9576 36.987 98.819 41.7835 103.484 48.442C108.15 55.1005 110.32 63.194 109.612 71.2973C108.905 79.4006 105.365 86.9941 99.6166 92.7407C93.8682 98.4872 86.2797 102.018 78.1873 102.712C70.0949 103.406 62.0175 101.218 55.3776 96.5334C48.7376 91.8489 43.9609 84.9684 41.8885 77.1034C39.8161 69.2384 40.581 60.8933 44.0484 53.5376L52.0659 57.3284C49.4896 62.7937 48.9213 68.9941 50.4611 74.8378C52.0009 80.6814 55.55 85.7937 60.4835 89.2742C65.417 92.7548 71.4184 94.3804 77.4311 93.8649C83.4437 93.3495 89.082 90.7259 93.353 86.4562C97.6241 82.1866 100.254 76.5446 100.78 70.5238C101.305 64.5031 99.693 58.4896 96.2267 53.5423C92.7604 48.5951 87.6624 45.0313 81.8303 43.4785C75.9982 41.9258 69.8061 42.4836 64.3444 45.0538L60.5739 37.0173Z" fill="#2B65F6"/>
<path d="M75.3801 35.783C42.4573 36.5447 20.0108 58.0457 12.9029 68.701C28.8753 92.7501 61.2096 100.032 75.3801 100.667V112.365C34.0908 112.474 7.92284 82.7569 0 67.8848C20.6446 32.4096 58.8554 23.9942 75.3801 24.2209V35.783Z" fill="#2B65F6"/>
<rect x="74.9711" y="0.00567627" width="76.3309" height="114.261" fill="#2B65F6"/>
<path d="M75.109 1.63221V14.4185L70.2194 17.003L71.0344 11.1539L67.0956 7.6173L72.8 6.5291L75.109 1.63221Z" fill="#2B65F6"/>
<path d="M75.2454 1.63221V14.4185L80.1349 17.003L79.32 11.1539L83.2588 7.6173L77.5543 6.5291L75.2454 1.63221Z" fill="#FDFEFF"/>
<path d="M12.089 37.1393L10.8667 42.4443L7.33534 37.9555L1.76672 38.2275L4.89058 33.6027L2.85328 28.4338L8.15026 29.93L12.4965 26.3934L12.7681 31.9704L17.6577 34.9629L12.089 37.1393Z" fill="#2B65F6"/>
<path d="M100.524 8.84805L99.5877 3.48496L95.8206 7.77723L90.2747 7.20586L93.1458 11.9921L90.8341 17.044L96.2037 15.8349L100.354 19.6004L100.924 14.0461L105.967 11.321L100.524 8.84805Z" fill="#FDFEFF"/>
<path d="M31.0752 24.2636L28.0985 28.8193L26.3326 23.3852L21.0128 21.7143L25.5394 18.4546L25.41 12.8991L29.865 16.1355L35.1635 14.3199L33.4951 19.6477L37.0517 24.1474L31.0752 24.2636Z" fill="#2B65F6"/>
<path d="M124.755 18.2428L125.01 12.8044L120.398 16.1699L115.11 14.4003L116.869 19.6987L113.513 24.1236L119.016 24.1172L122.246 28.6989L124.013 23.4031L129.528 21.8458L124.755 18.2428Z" fill="#FDFEFF"/>
<path d="M53.9348 15.9515L50.0909 19.8012L49.4718 14.1203L44.6056 11.3952L49.7021 9.13148L50.7099 3.66684L54.4099 7.7473L59.9671 7.0552L57.2461 11.9287L59.8088 17.0617L53.9348 15.9515Z" fill="#2B65F6"/>
<path d="M142.09 29.9073L137.922 26.4117L137.805 32.1251L133.198 35.269L138.474 37.0742L139.958 42.4287L143.285 38.0376L148.881 38.2366L145.742 33.6222L147.843 28.283L142.09 29.9073Z" fill="#FDFEFF"/>
<path d="M67.05 50.9265C71.1196 49.0806 75.7109 48.7399 80.0077 49.9649C84.3045 51.19 88.0283 53.9014 90.517 57.6171C93.0058 61.3328 94.0981 65.812 93.5999 70.2583C93.1017 74.7047 91.0452 78.83 87.7961 81.9009C84.547 84.9717 80.3158 86.7891 75.8547 87.0299C71.3937 87.2707 66.9919 85.9193 63.432 83.216C59.8722 80.5126 57.3849 76.6325 56.4124 72.2656C55.4399 67.8986 56.0453 63.3278 58.1208 59.3657L74.8387 68.1499L67.05 50.9265Z" fill="#2B65F6"/>
<path d="M75.107 49.2424C77.5862 49.2424 80.0412 49.7315 82.3317 50.6817C84.6222 51.6319 86.7034 53.0246 88.4565 54.7803C90.2095 56.536 91.6002 58.6204 92.5489 60.9143C93.4977 63.2083 93.986 65.6669 93.986 68.1499C93.986 70.6328 93.4977 73.0915 92.5489 75.3854C91.6002 77.6794 90.2095 79.7637 88.4565 81.5194C86.7034 83.2752 84.6222 84.6679 82.3317 85.6181C80.0412 86.5682 77.5862 87.0573 75.107 87.0573L75.107 68.1499V49.2424Z" fill="#FDFEFF"/>
<path d="M75.2428 35.7773C108.166 36.5391 130.612 58.04 137.72 68.6953C121.748 92.7444 89.4134 100.026 75.2428 100.661V112.359C116.532 112.468 142.7 82.7512 150.623 67.8792C129.978 32.4039 91.7676 23.9885 75.2428 24.2152V35.7773Z" fill="#FDFEFF"/>
<path d="M75.2449 33.7374C84.3944 33.7374 93.1692 37.3775 99.6388 43.8569C106.109 50.3364 109.743 59.1244 109.743 68.2877C109.743 77.451 106.109 86.239 99.6388 92.7184C93.1692 99.1978 84.3944 102.838 75.2449 102.838V93.9585C82.043 93.9585 88.5626 91.2539 93.3696 86.4397C98.1765 81.6255 100.877 75.096 100.877 68.2877C100.877 61.4793 98.1765 54.9499 93.3696 50.1356C88.5626 45.3214 82.0429 42.6168 75.2449 42.6168V33.7374Z" fill="#FDFEFF"/>
</svg>
