<svg width="28" height="28" viewBox="0 0 28 28" fill="none" xmlns="http://www.w3.org/2000/svg">
<path d="M14 5.25001C13.2264 5.25001 12.4846 5.5573 11.9376 6.10428C11.3906 6.65126 11.0833 7.39313 11.0833 8.16668C11.0833 8.94023 11.3906 9.68209 11.9376 10.2291C12.4846 10.7761 13.2264 11.0833 14 11.0833C14.7735 11.0833 15.5154 10.7761 16.0624 10.2291C16.6094 9.68209 16.9166 8.94023 16.9166 8.16668C16.9166 7.39313 16.6094 6.65126 16.0624 6.10428C15.5154 5.5573 14.7735 5.25001 14 5.25001ZM9.91664 8.16668C9.91664 7.63045 10.0223 7.09947 10.2275 6.60405C10.4327 6.10864 10.7334 5.6585 11.1126 5.27932C11.4918 4.90015 11.9419 4.59938 12.4374 4.39417C12.9328 4.18896 13.4637 4.08334 14 4.08334C14.5362 4.08334 15.0672 4.18896 15.5626 4.39417C16.058 4.59938 16.5082 4.90015 16.8873 5.27932C17.2665 5.6585 17.5673 6.10864 17.7725 6.60405C17.9777 7.09947 18.0833 7.63045 18.0833 8.16668C18.0833 9.24964 17.6531 10.2883 16.8873 11.054C16.1216 11.8198 15.0829 12.25 14 12.25C12.917 12.25 11.8784 11.8198 11.1126 11.054C10.3468 10.2883 9.91664 9.24964 9.91664 8.16668ZM10.9316 14.637C10.6594 14.707 10.3899 14.7856 10.1231 14.8727L9.00431 15.2402C8.54729 15.389 8.13453 15.6493 7.80333 15.9976C7.47213 16.3459 7.23292 16.7712 7.10731 17.2352L6.64181 20.5952C6.53681 21.35 6.93697 21.9718 7.57047 22.1235C8.81531 22.421 10.8966 22.75 13.9988 22.75C17.1021 22.75 19.1846 22.421 20.4295 22.1235C21.063 21.9718 21.462 21.35 21.3581 20.5952L20.8915 17.2352C20.7659 16.7712 20.5266 16.3459 20.1954 15.9976C19.8642 15.6493 19.4515 15.389 18.9945 15.2402L17.8756 14.8727C17.6089 14.7848 17.3398 14.7062 17.0683 14.637C16.8576 14.8024 16.6345 14.9514 16.401 15.0827C15.67 15.5026 14.843 15.7268 14 15.7337C12.9966 15.7337 12.1683 15.4035 11.599 15.0827C11.3651 14.9514 11.1428 14.8024 10.9316 14.637ZM11.263 13.3595L11.4893 13.5823L11.4951 13.5882L11.5231 13.6138C11.5504 13.6387 11.5935 13.6745 11.6526 13.7212C11.7693 13.8145 11.9455 13.9405 12.1706 14.0665C12.6221 14.3208 13.2521 14.567 13.9988 14.567C14.7455 14.567 15.3755 14.322 15.827 14.0665C16.0565 13.9368 16.273 13.7852 16.4733 13.6138L16.5025 13.587L16.5071 13.5835L16.7335 13.3595L17.0461 13.4318C17.4475 13.5236 17.8449 13.6345 18.2385 13.7643L19.3585 14.1318C20.0077 14.3426 20.593 14.7142 21.0601 15.2119C21.5272 15.7095 21.8609 16.3173 22.0301 16.9785L22.0383 17.01L22.512 20.4353C22.6835 21.672 22.022 22.9437 20.699 23.2587C19.3573 23.5783 17.1838 23.9167 13.9988 23.9167C10.8138 23.9167 8.64031 23.5783 7.29864 23.2587C5.97564 22.9437 5.31414 21.672 5.48447 20.4353L5.95931 17.01L5.96747 16.9785C6.13671 16.3173 6.47039 15.7095 6.93749 15.2119C7.40459 14.7142 7.98995 14.3426 8.63914 14.1318L9.75914 13.7643C10.1527 13.6352 10.5501 13.5244 10.9515 13.4318L11.263 13.3595Z" fill="black"/>
</svg>
